<?xml version="1.0" encoding="UTF-8" standalone="no"?>
<svg width="150px" height="150px" viewBox="0 0 38 90" version="1.1" xmlns="http://www.w3.org/2000/svg" xmlns:xlink="http://www.w3.org/1999/xlink" xmlns:sketch="http://www.bohemiancoding.com/sketch/ns">
    <title>Untitled 8</title>
    <description>Created with Sketch (http://www.bohemiancoding.com/sketch)</description>
    <defs></defs>
    <g id="Page-1" stroke="none" stroke-width="1" fill="none" fill-rule="evenodd" sketch:type="MSPage">
        <g id="Group" sketch:type="MSLayerGroup" fill="#555555">
            <path d="M30.4,61.7 C32.5,59.8 34.2,57.5 35.3,54.8 C35.4,54.7 35.4,54.5 35.5,54.4 C37,51 38.3,43 36.1,37.8 C33.3,31.5 25.2,28.3 22.5,27.9 C22.2,27.8 21.7,27.7 21.7,27.7 L21.9,25.9 L20.7,27.4 L18.2,25.9 L19.1,27.6 C19.1,27.6 17.5,27.6 15.3,28.1 L15.3,27.1 C15.3,26.7 15,26.3 14.5,26.3 C14,26.3 13.7,26.6 13.7,27.1 L13.7,28.5 C9.9,29.5 5.1,31.7 2.4,36.5 C-1,42.6 0.6,52 2.6,55.3 C3.7,58 5.5,60.4 7.7,62.2 C6.6,63.1 5.7,64.2 4.9,65.4 C2.7,69 1.6,73.9 1.6,81 C1.6,82.1 2.7,82.4 4.2,82.8 C4.5,82.9 5,83 5.3,83.1 C5.9,89.6 11.6,89.6 16.7,89.6 L19,89.6 C26,89.6 32.1,89.6 32.8,83.1 C33.1,83 33.5,82.9 33.8,82.8 C35.3,82.4 36.3,82.1 36.3,81 C36.6,73.1 35.6,65.7 30.4,61.7 L30.4,61.7 Z M3.8,49.8 C4.5,49 5.4,48.1 5.9,47.3 C6.5,46.5 7,45.1 7.3,44.1 C9.8,46.4 13.9,49.5 18,50.2 C24.4,51.2 29.5,50.6 29.5,50.6 L27.3,49.1 C27.3,49.1 32.2,50.6 33,50.7 C33.4,50.7 33.8,50.6 34.2,50.5 C33.2,58 26.8,63.7 19.1,63.7 C11,63.9 4.5,57.7 3.8,49.8 L3.8,49.8 Z M23.1,65.5 C22.3,66.2 20.8,66.8 18.8,66.8 C16.7,66.8 15.1,66.2 14.4,65.4 C15.9,65.8 17.4,66 19,66 C20.4,66 21.8,65.8 23.1,65.5 L23.1,65.5 Z M18.5,87.3 L16.9,87.3 C10.6,87.3 7.8,86.8 7.6,82.2 L7.6,81.9 L7.6,81.9 L7.6,81.6 L10.6,81.6 C10.5,81.9 10.2,82.2 10,82.5 C9.5,83 8.8,83.2 8.8,83.2 L9,83.9 L9.1,84.6 C9.2,84.6 10.2,84.3 11,83.5 C11.7,82.8 12.1,81.8 12.1,81.6 L18.5,81.6 L18.5,87.3 L18.5,87.3 Z M31,82.1 L31,82.3 C30.7,87 27.2,87.3 20.1,87.4 L20.1,81.8 L26.4,81.8 C26.5,82 26.9,83 27.5,83.7 C28.3,84.5 29.3,84.8 29.4,84.8 L29.7,83.4 C29.7,83.4 29,83.2 28.5,82.7 C28.2,82.4 28,82.1 27.9,81.8 L31,81.8 L31,82.1 L31,82.1 L31,82.1 Z M33.4,80.6 C33,80.7 32.7,80.8 32.4,80.9 C32.4,80.8 32.4,80.8 32.3,80.7 L30.6,71.3 C30.6,71.3 30.7,75.1 30.9,77.6 C31,78.6 31,79.6 31,80.3 L7.6,80.3 C7.6,79.5 7.6,78.6 7.7,77.6 C7.8,75.1 8,71.3 8,71.3 L6.3,80.9 C6,80.8 5.6,80.7 5.2,80.6 C4.9,80.5 4.5,80.4 4.2,80.3 C4.3,71.8 6.1,66.3 10,63.4 C10.9,64 11.8,64.4 12.8,64.8 C13.1,66.8 15.7,68.2 19.1,68.2 C22.4,68.2 25,66.8 25.4,64.9 C26.7,64.4 27.8,63.8 28.9,63.1 C33.4,66.2 34.6,72.2 34.7,80.3 C34.1,80.4 33.7,80.5 33.4,80.6 L33.4,80.6 Z" id="Shape" sketch:type="MSShapeGroup"></path>
            <path d="M17.3,61.3 L20.7,61.3 C21.1,61.3 21.4,61 21.4,60.6 C21.4,60.2 21.1,59.9 20.7,59.9 L17.3,59.9 C16.9,59.9 16.6,60.2 16.6,60.6 C16.6,61 16.9,61.3 17.3,61.3 L17.3,61.3 Z" id="Shape" sketch:type="MSShapeGroup"></path>
            <path d="M22.8,58.2 C23.6,58.2 24.3,57.5 24.3,56.7 L24.3,55.8 L21.8,53.7 C21.5,54 21.3,54.4 21.3,54.8 L21.3,56.6 C21.3,57.5 22,58.2 22.8,58.2 L22.8,58.2 Z" id="Shape" sketch:type="MSShapeGroup"></path>
            <path d="M15.2,58.2 C16,58.2 16.7,57.5 16.7,56.7 L16.7,54.9 C16.7,54.4 16.5,54 16.2,53.8 L13.7,55.9 L13.7,56.8 C13.7,57.5 14.4,58.2 15.2,58.2 L15.2,58.2 Z" id="Shape" sketch:type="MSShapeGroup"></path>
            <path d="M12,21.3 C13.6,21.3 15.2,20.8 16.5,20 C17.1,20.3 17.7,20.5 18.3,20.7 L18.3,23 C18.3,23.4 18.6,23.8 19.1,23.8 C19.6,23.8 19.9,23.5 19.9,23 L19.9,21 L21,21 C22.3,21 23.5,20.8 24.6,20.3 C25.5,20.8 26.6,21.1 27.7,21.1 C31.3,21.1 34.2,18.2 34.2,14.6 C34.2,12.3 33,10.3 31.2,9.1 C30.5,4.2 26.2,0.4 21,0.4 C17.6,0.4 14.5,2.1 12.7,4.7 L11.9,4.7 C11.7,4.7 11.6,4.7 11.4,4.8 C7.1,5.1 3.8,8.7 3.8,13 C3.8,17.6 7.5,21.3 12,21.3 L12,21.3 Z M12,7.1 C12.3,7.1 12.7,7.1 13,7.2 L13.2,7.2 C13.7,7.3 14.2,7.5 14.6,7.7 C14.8,7.8 15,7.8 15.1,7.8 C15.5,7.8 15.9,7.6 16.1,7.2 C16.4,6.6 16.2,6 15.6,5.7 C15.4,5.6 15.2,5.5 14.9,5.4 C16.4,3.8 18.5,2.8 20.8,2.8 C25,2.8 28.4,6 28.8,10.1 C28.8,10.5 29.1,10.8 29.4,11 C30.8,11.7 31.7,13.1 31.7,14.8 C31.7,17.1 29.8,19 27.5,19 C26.6,19 25.8,18.7 25.1,18.3 C24.8,18.1 24.4,18 24,18.2 C23,18.6 21.9,18.9 20.7,18.9 C19.2,18.9 17.8,18.5 16.6,17.8 C16.5,17.8 16.5,17.7 16.4,17.7 L15.5,17.1 C15,16.7 14.3,16.8 13.9,17.3 C13.6,17.7 13.6,18.3 13.9,18.7 C13.6,18.9 12.8,19 12,19 C8.7,19 6,16.3 6,13 C6.1,9.8 8.7,7.1 12,7.1 L12,7.1 Z" id="Shape" sketch:type="MSShapeGroup"></path>
            <path d="M9.3,23.4 L9.3,25.8 C9.3,26.2 9.6,26.6 10.1,26.6 C10.6,26.6 10.9,26.3 10.9,25.8 L10.9,23.4 C10.9,23 10.6,22.6 10.1,22.6 C9.6,22.6 9.3,22.9 9.3,23.4 L9.3,23.4 Z" id="Shape" sketch:type="MSShapeGroup"></path>
            <path d="M27.7,26 L27.7,28.4 C27.7,28.8 28,29.2 28.5,29.2 C29,29.2 29.3,28.9 29.3,28.4 L29.3,26 C29.3,25.6 29,25.2 28.5,25.2 C28,25.2 27.7,25.6 27.7,26 L27.7,26 Z" id="Shape" sketch:type="MSShapeGroup"></path>
            <path d="M23.4,23.4 L23.4,25.8 C23.4,26.2 23.7,26.6 24.2,26.6 C24.7,26.6 25,26.3 25,25.8 L25,23.4 C25,23 24.7,22.6 24.2,22.6 C23.7,22.6 23.4,23 23.4,23.4 L23.4,23.4 Z" id="Shape" sketch:type="MSShapeGroup"></path>
        </g>
    </g>
</svg>