<?xml version="1.0" encoding="UTF-8" standalone="no"?>
<svg width="150px" height="150px" viewBox="0 0 90 95" version="1.1" xmlns="http://www.w3.org/2000/svg" xmlns:xlink="http://www.w3.org/1999/xlink" xmlns:sketch="http://www.bohemiancoding.com/sketch/ns">
    <title>Untitled 7</title>
    <description>Created with Sketch (http://www.bohemiancoding.com/sketch)</description>
    <defs></defs>
    <g id="Page-1" stroke="none" stroke-width="1" fill="none" fill-rule="evenodd" sketch:type="MSPage">
        <path d="M45.2,10.4 L45.2,10.4 C44.5,10.4 43.9,9.8 43.9,9.1 L43.8,1.8 C43.8,1.1 44.4,0.5 45.1,0.5 L45.1,0.5 C45.8,0.5 46.4,1.1 46.4,1.8 L46.5,9.1 C46.5,9.8 45.9,10.4 45.2,10.4 L45.2,10.4 Z M52,11.9 L57.4,6.9 C58,6.5 58,5.7 57.5,5.2 L57.5,5.2 C57,4.7 56.2,4.6 55.7,5.1 L50.3,10.1 C49.8,10.6 49.7,11.4 50.2,11.9 L50.2,11.9 C50.7,12.4 51.5,12.4 52,11.9 L52,11.9 Z M33,5.4 L33,5.4 C32.5,5.9 32.6,6.7 33.1,7.2 L38.6,12 C39.1,12.5 39.9,12.4 40.4,11.9 L40.4,11.9 C40.9,11.4 40.8,10.6 40.3,10.1 L34.8,5.3 C34.2,4.8 33.4,4.9 33,5.4 L33,5.4 Z M43.4,20 C43.1,22.1 42.8,24.1 42.4,26.2 C42.2,27.4 42.1,28.7 41.6,29.8 C40.9,31.4 39.5,32.6 38.4,33.9 C37.4,35 36.4,36.1 35.5,37.2 L35.2,37.6 L34.8,39.2 L39.1,67.6 C39.9,70.7 33.6,68.7 33.5,68.8 C32.4,73.4 31.7,78.2 29.2,82.2 C27.3,85.2 25.4,88.1 23.5,91.1 C22.7,92.4 22,93.8 20.4,94.2 C18.6,94.7 16.4,93.9 15.7,92.1 C14.3,88.9 17.6,85.6 19.5,82.9 C20.9,80.9 22.2,78.7 23.5,76.6 L25.9,66.9 L23.1,66.2 C23,66.2 20.8,72 20.6,72.4 C19.9,74.2 19.4,76.4 18.3,77.9 C17.4,79.3 15.6,79.9 14.3,80.8 C12,82.4 9.6,83.9 7.3,85.5 L6.7,85.8 C6.6,85.8 6.6,85.8 6.5,85.9 C3.1,87.5 2.22044605e-15,83.5 1.7,80.6 C3,78.4 5.7,77.3 7.7,76 C9.1,75.1 10.5,74.2 11.9,73.2 L15.5,64.3 C13.7,63.8 11.8,63.4 10,62.9 C9.3,62.7 7.8,62.7 7.6,61.8 C7.4,60.9 8.5,59.8 8.9,59.1 C10,57.3 17.7,45 20.3,40.8 L20.3,40.7 L2.6,32.9 C0.7,32.1 -0.2,30 0.5,28.3 C1,27 2.3,26.2 3.7,26.2 C4.2,26.2 4.6,26.3 5.1,26.5 L23.3,34 L28.9,34 L35.2,26.9 L36.5,18.9 C36.9,16.6 38.8,15.8 40.5,16.1 C42.2,16.4 43.7,17.8 43.4,20 L43.4,20 Z M17.5,77.7 C17.5,77.7 17.5,77.6 17.5,77.7 C17.5,77.6 17.5,77.7 17.5,77.7 L17.5,77.7 L17.5,77.7 Z M17.6,77.5 L17.6,77.5 C17.5,77.6 17.5,77.6 17.5,77.7 C17.5,77.6 17.5,77.6 17.6,77.5 L17.6,77.5 L17.6,77.5 Z M18.4,25.5 C18.4,21.9 21.3,19 24.9,19 L24.9,19 L24.9,19 C26.6,19 28.3,19.6 29.5,20.9 C30.7,22.1 31.4,23.7 31.4,25.5 C31.4,29.1 28.5,32.1 24.9,32.1 L24.8,32.1 C21.3,32 18.3,29.1 18.4,25.5 L18.4,25.5 Z M69.5,40.8 L69.5,40.8 C71.4,43.9 78.8,55.9 80.7,58.8 C81.1,59.5 82.6,61.1 82.4,61.8 C82.1,62.8 75.9,64.1 74.3,64.4 L77.9,73.3 C79.9,74.6 81.9,75.9 83.9,77.3 C85.7,78.5 88.8,80.1 88.5,82.7 C88.3,85.5 84.8,87.2 82.4,85.6 L74.3,80.2 C73.6,79.7 72.8,79.3 72.1,78.7 C70.9,77.7 70.6,76.2 70,74.8 C69.4,73.4 68.8,71.9 68.3,70.5 C68.2,70.3 66.7,66.2 66.6,66.3 L63.8,67 L66.2,76.7 L70.4,83.3 C71.9,85.7 75.5,89.5 74,92.5 C73.1,94.2 70.9,95 69.1,94.3 C67.7,93.7 67,92.4 66.3,91.2 L63.6,87 C62.2,84.7 60.5,82.5 59.3,80.2 C58.3,78.3 58.1,76 57.6,73.9 C57.2,72.3 56.8,70.6 56.4,69 C55,69.4 50.6,70.3 50.9,67.3 C51.1,65.7 54.6,44.1 55.1,39.3 L54.7,37.7 L54.4,37.3 C53.1,35.8 51.7,34.3 50.4,32.8 C49.6,31.9 48.7,31 48.2,29.8 C47.6,28.2 47.5,26.5 47.2,24.9 C46.9,23.3 46.7,21.7 46.4,20.1 C46.3,19.2 46.5,18.2 47,17.5 C47.6,16.7 48.4,16.2 49.3,16.1 L49.8,16.1 L49.8,16.1 C51.5,16.1 53,17.4 53.3,19.1 L54.6,27.1 L60.9,34.2 L66.5,34.2 L84.6,26.6 C85,26.4 85.5,26.2 86,26.2 C87.4,26.2 88.7,27.1 89.2,28.4 C89.9,30.1 88.9,32.3 87.1,33.1 L69.5,40.8 L69.5,40.8 Z M72.5,77.7 L72.5,77.7 C72.5,77.7 72.5,77.6 72.5,77.7 C72.5,77.6 72.5,77.7 72.5,77.7 L72.5,77.7 Z M65,32 L65,32 C68.7,32 71.6,29.1 71.6,25.5 C71.6,21.9 68.7,19 65.1,19 L65.1,19 C63.4,19 61.7,19.6 60.5,20.9 C59.3,22.1 58.6,23.8 58.6,25.5 C58.6,29 61.5,32 65,32 L65,32 Z" id="Shape" fill="#555555" sketch:type="MSShapeGroup"></path>
    </g>
</svg>