<?xml version="1.0" encoding="UTF-8" standalone="no"?>
<svg width="150px" height="150px" viewBox="0 0 45 53" version="1.1" xmlns="http://www.w3.org/2000/svg" xmlns:xlink="http://www.w3.org/1999/xlink" xmlns:sketch="http://www.bohemiancoding.com/sketch/ns">
    <title>Untitled 4</title>
    <description>Created with Sketch (http://www.bohemiancoding.com/sketch)</description>
    <defs></defs>
    <g id="Page-1" stroke="none" stroke-width="1" fill="none" fill-rule="evenodd" sketch:type="MSPage">
        <g id="Group" sketch:type="MSLayerGroup" fill="#555555">
            <path d="M28.4,35.7 C27.96,35.37 27.33,35.46 27,35.9 C26.67,36.34 26.76,36.97 27.2,37.3 L27.6,37.6 C26.72,38.62 24.76,40.55 22.19,40.93 C20.54,41.18 18.88,40.74 17.24,39.62 L17.4,39.5 C17.84,39.17 17.93,38.54 17.6,38.1 C17.27,37.66 16.64,37.57 16.2,37.9 L14,39.55 C13.56,39.88 13.47,40.51 13.8,40.95 C14,41.21 14.3,41.35 14.6,41.35 C14.81,41.35 15.02,41.28 15.2,41.15 L15.56,40.88 C17.42,42.29 19.33,43 21.28,43 C21.68,43 22.09,42.97 22.49,42.91 C25.78,42.41 28.18,40.02 29.2,38.8 L29.4,38.95 C29.58,39.08 29.79,39.15 30,39.15 C30.3,39.15 30.6,39.01 30.8,38.75 C31.13,38.31 31.04,37.68 30.6,37.35 L28.4,35.7 L28.4,35.7 Z" id="Shape" sketch:type="MSShapeGroup"></path>
            <path d="M30.58,16.16 C27.29,16.16 24.5,18.31 23.53,21.28 C23.12,21.09 22.65,20.98 22.15,20.98 C21.65,20.98 21.19,21.1 20.77,21.28 C19.8,18.31 17.01,16.16 13.72,16.16 C9.63,16.16 6.3,19.49 6.3,23.58 C6.3,27.67 9.64,31 13.73,31 C17.82,31 21.15,27.67 21.15,23.58 C21.15,23.29 21.58,22.98 22.16,22.98 C22.74,22.98 23.17,23.3 23.17,23.58 C23.17,27.67 26.5,31 30.59,31 C34.68,31 38,27.67 38,23.58 C38,19.49 34.67,16.16 30.58,16.16 L30.58,16.16 Z M13.73,29 C10.74,29 8.31,26.57 8.31,23.58 C8.31,20.59 10.74,18.16 13.73,18.16 C16.72,18.16 19.15,20.59 19.15,23.58 C19.15,26.57 16.72,29 13.73,29 L13.73,29 Z M30.58,29 C27.59,29 25.16,26.57 25.16,23.58 C25.16,20.59 27.59,18.16 30.58,18.16 C33.57,18.16 36,20.59 36,23.58 C36,26.57 33.57,29 30.58,29 L30.58,29 Z" id="Shape" sketch:type="MSShapeGroup"></path>
            <path d="M14.92,20.08 C14.53,19.69 13.9,19.69 13.51,20.08 L10.3,23.29 C9.91,23.68 9.91,24.31 10.3,24.7 C10.49,24.9 10.74,25 11,25 C11.26,25 11.51,24.9 11.71,24.71 L14.92,21.5 C15.31,21.11 15.31,20.47 14.92,20.08 L14.92,20.08 Z" id="Shape" sketch:type="MSShapeGroup"></path>
            <path d="M16.29,22.87 L13.08,26.08 C12.69,26.47 12.69,27.1 13.08,27.49 C13.28,27.69 13.53,27.78 13.79,27.78 C14.05,27.78 14.3,27.68 14.5,27.49 L17.71,24.28 C18.1,23.89 18.1,23.26 17.71,22.87 C17.32,22.48 16.68,22.48 16.29,22.87 L16.29,22.87 Z" id="Shape" sketch:type="MSShapeGroup"></path>
            <path d="M32.09,19.67 C31.7,19.28 31.07,19.28 30.68,19.67 L27.47,22.88 C27.08,23.27 27.08,23.9 27.47,24.29 C27.67,24.49 27.92,24.58 28.18,24.58 C28.44,24.58 28.69,24.48 28.89,24.29 L32.1,21.08 C32.48,20.69 32.48,20.06 32.09,19.67 L32.09,19.67 Z" id="Shape" sketch:type="MSShapeGroup"></path>
            <path d="M32.5,22.87 L29.29,26.08 C28.9,26.47 28.9,27.1 29.29,27.49 C29.49,27.69 29.74,27.78 30,27.78 C30.26,27.78 30.51,27.68 30.71,27.49 L33.92,24.28 C34.31,23.89 34.31,23.26 33.92,22.87 C33.53,22.48 32.89,22.48 32.5,22.87 L32.5,22.87 Z" id="Shape" sketch:type="MSShapeGroup"></path>
            <path d="M10.8,33.89 C11.06,33.89 11.32,33.78 11.51,33.59 C11.69,33.41 11.8,33.15 11.8,32.89 C11.8,32.63 11.69,32.37 11.51,32.18 C11.13,31.81 10.47,31.8 10.09,32.18 C9.9,32.37 9.8,32.63 9.8,32.89 C9.8,33.15 9.9,33.41 10.09,33.59 C10.27,33.78 10.53,33.89 10.8,33.89 L10.8,33.89 Z" id="Shape" sketch:type="MSShapeGroup"></path>
            <path d="M10.3,36.42 C10.11,36.6 10,36.86 10,37.13 C10,37.39 10.11,37.65 10.29,37.83 C10.47,38.02 10.73,38.12 11,38.12 C11.27,38.12 11.52,38.02 11.71,37.83 C11.89,37.65 12,37.39 12,37.13 C12,36.86 11.89,36.6 11.71,36.42 C11.33,36.04 10.65,36.05 10.3,36.42 L10.3,36.42 Z" id="Shape" sketch:type="MSShapeGroup"></path>
            <path d="M6.79,37.29 C6.61,37.48 6.5,37.74 6.5,38 C6.5,38.26 6.61,38.52 6.79,38.71 C6.98,38.89 7.24,39 7.5,39 C7.77,39 8.02,38.89 8.21,38.71 C8.4,38.52 8.5,38.26 8.5,38 C8.5,37.74 8.4,37.48 8.21,37.29 C7.84,36.92 7.16,36.93 6.79,37.29 L6.79,37.29 Z" id="Shape" sketch:type="MSShapeGroup"></path>
            <path d="M34,33.05 C33.81,33.24 33.7,33.5 33.7,33.76 C33.7,34.02 33.81,34.28 34,34.47 C34.18,34.66 34.44,34.76 34.71,34.76 C34.97,34.76 35.22,34.66 35.41,34.47 C35.6,34.28 35.7,34.02 35.7,33.76 C35.7,33.49 35.6,33.24 35.41,33.05 C35.04,32.68 34.37,32.68 34,33.05 L34,33.05 Z" id="Shape" sketch:type="MSShapeGroup"></path>
            <path d="M33.79,37.29 C33.61,37.48 33.5,37.74 33.5,38 C33.5,38.26 33.61,38.52 33.79,38.71 C33.98,38.89 34.24,39 34.5,39 C34.76,39 35.02,38.89 35.21,38.71 C35.4,38.52 35.5,38.26 35.5,38 C35.5,37.74 35.4,37.48 35.21,37.29 C34.84,36.92 34.17,36.92 33.79,37.29 L33.79,37.29 Z" id="Shape" sketch:type="MSShapeGroup"></path>
            <path d="M37.29,38.17 C37.1,38.36 37,38.61 37,38.88 C37,39.13 37.1,39.39 37.29,39.58 C37.48,39.77 37.74,39.87 38,39.87 C38.26,39.87 38.52,39.77 38.71,39.58 C38.89,39.39 39,39.14 39,38.88 C39,38.61 38.89,38.36 38.71,38.17 C38.34,37.8 37.66,37.8 37.29,38.17 L37.29,38.17 Z" id="Shape" sketch:type="MSShapeGroup"></path>
            <path d="M39,6 L30,6 L30,2.31 C30,1.03 28.97,0 27.69,0 L16.31,0 C15.03,0 14,1.03 14,2.31 L14,6 L5,6 C2.24,6 0,8.24 0,11 L0,44 C0,46.76 2.24,49 5,49 L8,49 L8,50.69 C8,51.97 9.03,53 10.31,53 L33.7,53 C34.97,53 36.01,51.97 36.01,50.69 L36.01,49 L39.01,49 C41.77,49 44.01,46.76 44.01,44 L44.01,11 C44,8.24 41.76,6 39,6 L39,6 Z M16,2.31 C16,2.14 16.14,2 16.31,2 L27.7,2 C27.86,2 28,2.14 28,2.31 L28,6 L16,6 L16,2.31 L16,2.31 Z M34,50.69 C34,50.86 33.86,51 33.69,51 L10.31,51 C10.14,51 10,50.86 10,50.69 L10,49 L34,49 L34,50.69 L34,50.69 Z M42,44 C42,45.65 40.65,47 39,47 L36,47 L8,47 L5,47 C3.35,47 2,45.65 2,44 L2,11 C2,9.35 3.35,8 5,8 L14,8 L30,8 L39,8 C40.65,8 42,9.35 42,11 L42,44 L42,44 Z" id="Shape" sketch:type="MSShapeGroup"></path>
        </g>
    </g>
</svg>