<?xml version="1.0" encoding="utf-8"?>
<!-- Generator: Adobe Illustrator 18.1.1, SVG Export Plug-In . SVG Version: 6.00 Build 0)  -->
<svg version="1.1" id="Layer_1" xmlns="http://www.w3.org/2000/svg" xmlns:xlink="http://www.w3.org/1999/xlink" x="0px" y="0px"
	 viewBox="0 0 590 535.3" enable-background="new 0 0 590 535.3" xml:space="preserve">
<g>
	<path fill="#FFFFFF" d="M575.4,517.1c-4.1,1.3-8.5,2-13.2,2c-12.7,0-19.4-5.3-20.2-16h48v-9.6c0-11-3-19.7-9-26
		c-6-6.3-14.2-9.5-24.8-9.5c-7.1,0-13.5,1.7-19.1,5.1c-5.6,3.4-10,8.1-13.1,14.2c-3.1,6-4.6,12.9-4.6,20.5c0,11.9,3.3,21.1,9.9,27.6
		c6.6,6.5,15.8,9.8,27.7,9.8c10.9,0,19.7-1.8,26.5-5.5v-0.2L575.4,517.1z M546.6,477.9c2.7-3,5.9-4.6,9.5-4.6
		c8.5,0,12.8,5.3,12.8,15.8h-27.1C542.3,484.7,543.9,481,546.6,477.9z"/>
	<path fill="#FFFFFF" d="M48.8,435.7H30.1v64.9c0,7.3,0,9.2-1.5,10.7c-1.4,1.4-3.9,1.4-6.7,1.4h-9.7L0,533.5h21.5
		c10.3,0,18-0.5,23.7-4.5c6.5-4.5,7.6-11.9,7.6-27.7v-59.5L48.8,435.7z"/>
	<polygon fill="#FFFFFF" points="187.5,459.9 168.4,507.5 167.8,507.5 148.6,459.9 132.4,459.9 132.4,472.1 157.1,533.5 179,533.5 
		203.7,472.1 203.7,459.9 	"/>
	<polygon fill="#FFFFFF" points="344.6,512.6 310,512.6 352.2,449.1 352.2,435.7 283.5,435.7 283.5,448.2 287.5,454.3 323.2,454.3 
		279.5,520.1 279.5,533.5 358.1,533.5 	"/>
	<path fill="#FFFFFF" d="M268.1,533.5v-43.8c0-21.1-10.6-31.7-31.8-31.7c-4.2,0-9.2,0.7-15.1,2c-2.5,0.5-4.6,1.1-6.6,1.7v10.4
		l2.9,4.5c5.1-2,10.3-2.9,15.7-2.9c8.8,0,13.2,4.1,13.2,12.2l-16.3,2.1c-17.1,2.3-25.6,10.6-25.6,24.9c0,6.8,2.1,12.3,6.3,16.3
		c4.2,4.1,9.8,6.1,16.9,6.1c1.7,0,16.4-0.3,20.3-7.5h0.3l0,0l3.7,5.8H268.1z M244.5,515.2c-2.7,2.9-6.2,4.4-10.5,4.4
		c-3.2,0-5.7-0.8-7.4-2.5c-1.8-1.7-2.6-3.8-2.6-6.4c0-5.8,3.7-9.2,11.2-10.1l13.5-1.7v5C248.6,508.5,247.3,512.3,244.5,515.2z"/>
	<path fill="#FFFFFF" d="M125.9,533.5v-43.8c0-21.1-10.6-31.7-31.8-31.7c-4.2,0-9.2,0.7-15.1,2c-2.5,0.5-4.6,1.1-6.6,1.7v10.4
		l2.9,4.5c5.1-2,10.3-2.9,15.7-2.9c8.8,0,13.2,4.1,13.2,12.2L88,487.9c-17.1,2.3-25.6,10.6-25.6,24.9c0,6.8,2.1,12.3,6.3,16.3
		c4.2,4.1,9.8,6.1,16.9,6.1c1.7,0,16.4-0.3,20.3-7.5h0.3l0,0l3.7,5.8H125.9z M102.3,515.2c-2.7,2.9-6.2,4.4-10.5,4.4
		c-3.2,0-5.7-0.8-7.4-2.5c-1.8-1.7-2.6-3.8-2.6-6.4c0-5.8,3.7-9.2,11.2-10.1l13.5-1.7v5C106.4,508.5,105,512.3,102.3,515.2z"/>
	<path fill="#FFFFFF" d="M434.3,495.7c0,12.2-3.6,21.8-10.8,28.9c-7.2,7.1-17,10.7-29.4,10.7c-12.1,0-21.7-3.4-28.8-10.2
		c-7.1-6.8-10.6-16.2-10.6-28.1c0-12.2,3.6-21.7,10.9-28.6c7.3-6.9,17.1-10.3,29.5-10.3c12.1,0,21.6,3.4,28.6,10.2
		C430.8,475.1,434.3,484.3,434.3,495.7z M411.2,496.1c0-13.8-5.5-20.6-16.5-20.6c-5.4,0-9.5,1.8-12.5,5.5c-3,3.7-4.5,8.9-4.5,15.7
		c0,14.1,5.7,21.2,17.1,21.2C405.7,517.9,411.2,510.6,411.2,496.1z"/>
</g>
<path fill="#FFFFFF" d="M482.5,458c-11.4,0-16.1,3.7-19,7.7h-0.5l0,0l-3.8-5.9h-13.4v73.6h22.6V487v0v0v0c0-5.3,4.3-9.6,9.6-9.6
	c5.3,0,9.6,4.3,9.6,9.6v0v0l0,0v46.5h22.6v-47.9C510.1,470.6,497.3,458,482.5,458z"/>
<path fill="#121212" d="M292.6,349.4"/>
<g>
	<g>
		<polygon fill="#F58646" points="67.4,356.4 505.9,231.1 535.9,0 		"/>
	</g>
	<polygon fill="#A11C38" points="524.4,349.4 84.2,22.2 219.7,312.9 331.2,362.8 	"/>
	<g>
		<polygon fill="#F05350" points="376.2,121.4 84.2,22.2 524.4,349.4 		"/>
	</g>
	<polygon fill="#FCAF1A" points="233.7,73 67.4,356.4 535.9,0 	"/>
</g>
</svg>
