<?xml version="1.0" encoding="UTF-8" standalone="no"?>
<svg width="150px" height="150px" viewBox="0 0 86 86" version="1.1" xmlns="http://www.w3.org/2000/svg" xmlns:xlink="http://www.w3.org/1999/xlink" xmlns:sketch="http://www.bohemiancoding.com/sketch/ns">
    <title>Slice 1</title>
    <description>Created with Sketch (http://www.bohemiancoding.com/sketch)</description>
    <defs></defs>
    <g id="Page-1" stroke="none" stroke-width="1" fill="none" fill-rule="evenodd" sketch:type="MSPage">
        <g id="Group" sketch:type="MSLayerGroup" transform="translate(1.000000, 0.637820)" fill="#555555">
            <path d="M82.11506,0.06209 C82.036772,0.0674503167 81.9588399,0.077131736 81.88162,0.09109 C81.4026566,0.156511213 80.9601795,0.382870077 80.62686,0.73299 L59.675322,21.71379 C59.4964284,21.844278 59.3389162,22.0017936 59.208432,22.18069 L54.189402,27.17059 C53.5873907,27.6930718 53.3273957,28.5079039 53.515536,29.2825058 C53.7036764,30.0571076 54.3084773,30.6618924 55.0830842,30.8500122 C55.857691,31.0381319 56.6725162,30.7781152 57.194982,30.17609 L60.609092,26.76199 C61.491582,28.81959 61.077672,31.28329 59.383512,32.97739 C57.155552,35.20539 53.616052,35.20529 51.388082,32.97739 C49.160152,30.74949 49.160212,27.20979 51.388082,24.98199 C52.346122,24.02399 53.530972,23.48109 54.773002,23.34789 C55.104192,23.31289 55.435722,23.32589 55.765142,23.34789 C56.528185,23.4035456 57.2626864,23.0466883 57.6905383,22.4124368 C58.1183902,21.7781853 58.1741908,20.9634917 57.8368122,20.2768274 C57.4994336,19.5901631 56.8204476,19.1364921 56.056942,19.08759 C55.477382,19.04859 54.910452,19.05459 54.335302,19.11659 C52.164322,19.34949 50.040622,20.31819 48.382492,21.97619 C44.526352,25.83239 44.526332,32.12669 48.382492,35.98279 C52.238682,39.83899 58.562122,39.83899 62.418272,35.98279 C65.760412,32.64079 66.182552,27.46999 63.731392,23.63949 L68.516982,18.85389 L72.45634,22.79319 L72.42724,41.9648 L34.842852,79.5492 L4.845382,49.5225 L42.429762,11.93809 L61.601302,11.93809 L62.593432,12.93039 C63.1160491,13.5319486 63.930677,13.7915774 64.7050008,13.603365 C65.4793247,13.4151526 66.0838902,12.8105649 66.2720743,12.0362342 C66.4602584,11.2619034 66.2005997,10.4472851 65.599022,9.92469 L63.994092,8.29059 C63.5900243,7.89251247 63.0438995,7.67199381 62.476712,7.67789 L41.525172,7.67789 C41.4571245,7.67462432 41.3889595,7.67462432 41.320912,7.67789 C40.8250641,7.72243247 40.3604705,7.93921119 40.007792,8.29059 L0.3224122,48.0051 C-0.50473039,48.8362831 -0.50473039,50.1796169 0.3224122,51.0108 L33.354652,84.043 C34.1858224,84.8700696 35.5290716,84.8700696 36.360242,84.043 L76.07479,44.3576 C76.4729054,43.953542 76.6934576,43.4074073 76.68758,42.8402 L76.71668,21.88869 C76.707099,21.327422 76.4763969,20.7926138 76.07471,20.40049 L71.52257,15.84839 L83.63244,3.73849 C84.272695,3.1321128 84.4732259,2.19397173 84.1368252,1.37883103 C83.8004244,0.563690327 82.9966214,0.0400281744 82.11506,0.06169 L82.11506,0.06209 Z M24.221102,36.42089 C23.1251808,36.5266361 22.2903437,37.4499896 22.295202,38.55099 L22.295202,50.6901 C22.2806783,51.4607056 22.68348,52.179072 23.3485286,52.5686285 C24.0135773,52.958185 24.8371667,52.958185 25.5022154,52.5686285 C26.167264,52.179072 26.5700657,51.4607056 26.555542,50.6901 L26.555542,40.6812 L36.564422,40.6812 C37.3352102,40.6960124 38.0538723,40.293278 38.4436058,39.6281151 C38.8333394,38.9629522 38.8333394,38.1391378 38.4436058,37.4739749 C38.0538723,36.808812 37.3352102,36.4060776 36.564422,36.42089 L24.425372,36.42089 C24.3573212,36.417624 24.2891528,36.417624 24.221102,36.42089 L24.221102,36.42089 Z M45.581172,45.6419 C44.4855147,45.7626608 43.66288,46.6992188 43.684442,47.8013 L43.684442,57.8101 L33.675562,57.8101 C32.9053331,57.796171 32.187576,58.1991109 31.7983844,58.863924 C31.4091928,59.5287372 31.4091928,60.3518628 31.7983844,61.016676 C32.187576,61.6814891 32.9053331,62.084429 33.675562,62.0705 L45.814622,62.0705 C46.9910076,62.0702911 47.9445997,61.1166856 47.944792,59.9403 L47.944792,47.8013 C47.9526336,47.2262304 47.7276505,46.6724168 47.3209809,46.2657396 C46.9143112,45.8590624 46.3605018,45.6340691 45.785432,45.6419 C45.7173845,45.6386343 45.6492195,45.6386343 45.581172,45.6419 L45.581172,45.6419 Z" id="Shape" sketch:type="MSShapeGroup"></path>
        </g>
    </g>
</svg>