<?xml version="1.0" encoding="UTF-8" standalone="no"?>
<svg width="150px" height="150px" viewBox="0 0 88 74" version="1.1" xmlns="http://www.w3.org/2000/svg" xmlns:xlink="http://www.w3.org/1999/xlink" xmlns:sketch="http://www.bohemiancoding.com/sketch/ns">
    <title>Untitled 2</title>
    <description>Created with Sketch (http://www.bohemiancoding.com/sketch)</description>
    <defs></defs>
    <g id="Page-1" stroke="none" stroke-width="1" fill="none" fill-rule="evenodd" sketch:type="MSPage">
        <g id="Group" sketch:type="MSLayerGroup" transform="translate(1.000000, 0.000000)" fill="#555555">
            <circle id="Oval" sketch:type="MSShapeGroup" cx="24.601" cy="42.601" r="5.601"></circle>
            <circle id="Oval" sketch:type="MSShapeGroup" cx="48.601" cy="42.601" r="5.601"></circle>
            <path d="M81.131,24.833 L86.146,21 L69.457,21 C63.426,9 50.979,0.446 36.594,0.446 C16.303,0.446 -0.146,16.774 -0.146,37.065 C-0.146,57.358 16.303,73.746 36.594,73.746 C56.885,73.746 73.334,57.495 73.334,37.203 C73.334,34.311 72.989,32 72.358,29 L86.146,29 L81.131,24.833 L81.131,24.833 Z M66.474,51 L6.715,51 C4.674,47 3.528,41.93 3.528,36.856 C3.528,35.541 3.614,35 3.763,33 L69.424,33 C69.574,35 69.659,35.541 69.659,36.856 C69.66,41.93 68.515,47 66.474,51 L66.474,51 Z" id="Shape" sketch:type="MSShapeGroup"></path>
        </g>
    </g>
</svg>