<?xml version="1.0" encoding="UTF-8" standalone="no"?>
<svg width="150px" height="150px" viewBox="0 0 396 305" version="1.1" xmlns="http://www.w3.org/2000/svg" xmlns:xlink="http://www.w3.org/1999/xlink" xmlns:sketch="http://www.bohemiancoding.com/sketch/ns">
    <title>Untitled 5</title>
    <description>Created with Sketch (http://www.bohemiancoding.com/sketch)</description>
    <defs></defs>
    <g id="Page-1" stroke="none" stroke-width="1" fill="none" fill-rule="evenodd" sketch:type="MSPage">
        <g id="Group" sketch:type="MSLayerGroup" transform="translate(0.000000, 1.000000)" fill="#555555">
            <path d="M321.979,80.172 L393.908,8.242 L385.424,-0.243 L312.34,72.842 C280.041,49.86 240.57,36.333 198,36.333 C155.43,36.333 115.959,49.86 83.66,72.842 L10.576,-0.243 L2.092,8.242 L74.021,80.172 C29.113,116.438 0.334,171.917 0.334,234 L12.334,234 C12.334,131.623 95.623,48.333 198,48.333 C300.377,48.333 383.666,131.623 383.666,234 L395.666,234 C395.666,171.917 366.887,116.438 321.979,80.172 L321.979,80.172 Z" id="Shape" sketch:type="MSShapeGroup"></path>
            <path d="M133.715,181.896 C133.715,177.952 130.506,174.744 126.563,174.744 C122.62,174.744 119.411,177.952 119.411,181.896 C119.411,185.839 122.62,189.048 126.563,189.048 C130.506,189.048 133.715,185.839 133.715,181.896 L133.715,181.896 Z" id="Shape" sketch:type="MSShapeGroup"></path>
            <path d="M276.59,181.896 C276.59,177.952 273.381,174.744 269.438,174.744 C265.495,174.744 262.286,177.952 262.286,181.896 C262.286,185.839 265.495,189.048 269.438,189.048 C273.381,189.048 276.59,185.839 276.59,181.896 L276.59,181.896 Z" id="Shape" sketch:type="MSShapeGroup"></path>
            <path d="M268.647,280.661 C249.009,288.185 225.239,292 198,292 C170.761,292 146.991,288.185 127.353,280.661 C107.712,273.137 97.069,263.781 91.598,257.257 L82.403,264.968 C92.244,276.704 123.208,304 198,304 C272.792,304 303.756,276.704 313.598,264.968 L304.403,257.257 C298.932,263.781 288.288,273.137 268.647,280.661 L268.647,280.661 Z" id="Shape" sketch:type="MSShapeGroup"></path>
        </g>
    </g>
</svg>