<?xml version="1.0" encoding="UTF-8" standalone="no"?>
<svg width="150px" height="150px" viewBox="0 0 83 82" version="1.1" xmlns="http://www.w3.org/2000/svg" xmlns:xlink="http://www.w3.org/1999/xlink" xmlns:sketch="http://www.bohemiancoding.com/sketch/ns">
    <title>Untitled 6</title>
    <description>Created with Sketch (http://www.bohemiancoding.com/sketch)</description>
    <defs></defs>
    <g id="Page-1" stroke="none" stroke-width="1" fill="none" fill-rule="evenodd" sketch:type="MSPage">
        <path d="M2.7,82 L81.2,82 C82.2,82 83,81.2 83,80.2 L83,73.9 C83,72.9 82.2,72.1 81.2,72.1 L78.5,72.1 L78.5,31.2 C78.5,27.7 75.7,24.9 72.2,24.9 L60.3,24.9 C59.3,24.9 58.5,25.7 58.5,26.7 C58.5,27.7 59.3,28.5 60.3,28.5 L72.2,28.5 C73.7,28.5 74.8,29.7 74.8,31.1 L74.8,72 L68.7,72 C68,66.2 63.1,61.6 57.1,61.6 C56.1,61.6 55.3,62.4 55.3,63.4 C55.3,64.4 56.1,65.2 57.1,65.2 C61.1,65.2 64.4,68.1 65,71.9 L55.7,71.9 C55.1,65.9 50.5,61 44.5,60.1 L44.5,44.2 C44.5,43.2 43.7,42.4 42.7,42.4 C41.7,42.4 40.9,43.2 40.9,44.2 L40.9,60.1 C34.7,60.8 29.8,65.8 29.2,72 L19.8,72 C20.4,68.2 23.7,65.3 27.7,65.3 C28.7,65.3 29.5,64.5 29.5,63.5 C29.5,62.5 28.7,61.7 27.7,61.7 C21.7,61.7 16.8,66.2 16.1,72.1 L9.3,72.1 L9.3,31.2 C9.3,29.7 10.5,28.6 11.9,28.6 L25.4,28.6 C26.4,28.6 27.2,27.8 27.2,26.8 C27.2,25.8 26.4,25 25.4,25 L11.9,25 C8.4,25 5.6,27.8 5.6,31.3 L5.6,72 L2.5,72 C1.5,72 0.7,72.8 0.7,73.8 L0.7,80.1 C0.9,81.2 1.7,82 2.7,82 L2.7,82 Z M43.6,63.7 C48,64.2 51.5,67.6 52.1,72 L33,72 C33.6,67.5 37.4,63.9 42,63.7 L43.6,63.7 Z M4.6,75.7 L7.7,75.7 L76.9,75.7 L79.6,75.7 L79.6,78.4 L4.7,78.4 L4.7,75.7 L4.6,75.7 Z M42.9,16.9 C39.6,16.9 37,19.6 37,22.8 C37,26.1 39.7,28.7 42.9,28.7 C46.1,28.7 48.8,26 48.8,22.8 C48.8,19.5 46.1,16.9 42.9,16.9 L42.9,16.9 Z M42.9,25.1 C41.6,25.1 40.6,24.1 40.6,22.8 C40.6,21.5 41.6,20.5 42.9,20.5 C44.2,20.5 45.2,21.5 45.2,22.8 C45.2,24.1 44.1,25.1 42.9,25.1 L42.9,25.1 Z M48.8,58.4 L48.8,51.1 C47.8,51.1 47.1,50.3 47.1,49.3 C47.1,48.3 47.9,47.5 48.9,47.5 L56,47.5 L56,45 C56,44.3 55.8,43.6 55.4,43 L52.1,37.8 C51.4,36.7 51,35.3 51,34 L51,16.8 C51,15.1 50.4,13.5 49.3,12.3 L42.7,4.7 L36.2,12.3 C35.1,13.5 34.5,15.1 34.5,16.8 L34.5,33.9 C34.5,35.4 34.1,36.8 33.2,38 L29.6,43.1 C29.2,43.7 28.9,44.5 28.9,45.2 L28.9,47.5 L36.1,47.5 C37.1,47.5 37.9,48.3 37.9,49.3 C37.9,50.3 37.1,51.1 36.1,51.1 L35.9,51.1 L35.9,58.4 C35.9,59.4 35.1,60.2 34.1,60.2 C33.1,60.2 32.3,59.4 32.3,58.4 L32.3,51.1 L27.2,51.1 C26.2,51.1 25.4,50.3 25.4,49.3 L25.4,45.1 C25.4,43.6 25.9,42.1 26.7,40.9 L30.3,35.8 C30.7,35.2 30.9,34.5 30.9,33.8 L30.9,16.7 C30.9,14.2 31.8,11.8 33.4,9.8 L41.3,0.6 C41.6,0.2 42.2,1.13686838e-13 42.7,1.13686838e-13 L42.7,1.13686838e-13 C43.2,1.13686838e-13 43.7,0.2 44.1,0.6 L52.1,9.8 C53.8,11.7 54.7,14.2 54.7,16.7 L54.7,34 C54.7,34.7 54.9,35.3 55.2,35.9 L58.5,41.1 C59.3,42.3 59.6,43.7 59.6,45.1 L59.6,49.4 C59.6,50.4 58.8,51.2 57.8,51.2 L52.5,51.2 L52.5,58.5 C52.5,59.5 51.7,60.3 50.7,60.3 C49.7,60.3 48.8,59.4 48.8,58.4 L48.8,58.4 Z" id="Shape" fill="#555555" sketch:type="MSShapeGroup"></path>
    </g>
</svg>