<?xml version="1.0" encoding="UTF-8" standalone="no"?>
<svg width="150px" height="150px" viewBox="0 0 89 73" version="1.1" xmlns="http://www.w3.org/2000/svg" xmlns:xlink="http://www.w3.org/1999/xlink" xmlns:sketch="http://www.bohemiancoding.com/sketch/ns">
    <title>Untitled 3</title>
    <description>Created with Sketch (http://www.bohemiancoding.com/sketch)</description>
    <defs></defs>
    <g id="Page-1" stroke="none" stroke-width="1" fill="none" fill-rule="evenodd" sketch:type="MSPage">
        <g id="speaker" sketch:type="MSLayerGroup" transform="translate(1.000000, 0.000000)" fill="#555555">
            <path d="M85.1,0.2 L17.6,0.2 C16.5,0.2 15.6,1.1 15.6,2.2 L15.6,10.3 C16.3,10.1 17,10 17.7,9.9 L17.7,2.2 L85.1,2.2 L85.1,45.8 L48.5,45.8 C48,46.5 47.4,47.2 46.8,47.9 L85.1,47.9 C86.2,47.9 87.1,47 87.1,45.9 L87.1,2.2 C87.1,1.1 86.2,0.2 85.1,0.2 L85.1,0.2 Z" id="Shape" sketch:type="MSShapeGroup"></path>
            <path d="M50.3,16.2 C50,15.7 49.3,15.7 48.9,16 L39.3,23.4 C39,23.6 38.9,23.9 38.9,24.2 C38.9,24.5 39,24.8 39.3,25 L48.9,32.4 C49.1,32.5 49.3,32.6 49.5,32.6 C49.8,32.6 50.1,32.5 50.3,32.2 C50.6,31.7 50.6,31.1 50.1,30.8 L41.6,24.2 L50.1,17.6 C50.6,17.3 50.7,16.6 50.3,16.2 L50.3,16.2 Z" id="Shape" sketch:type="MSShapeGroup"></path>
            <path d="M56.1,32.2 C56.3,32.5 56.6,32.6 56.9,32.6 C57.1,32.6 57.3,32.5 57.5,32.4 L67.1,25 C67.4,24.8 67.5,24.5 67.5,24.2 C67.5,23.9 67.4,23.6 67.1,23.4 L57.5,16 C57,15.7 56.4,15.7 56.1,16.2 C55.8,16.7 55.8,17.3 56.3,17.6 L64.8,24.2 L56.3,30.8 C55.8,31.1 55.7,31.8 56.1,32.2 L56.1,32.2 Z" id="Shape" sketch:type="MSShapeGroup"></path>
            <path d="M6,41.9 C6,41.9 4.9,35.8 8.6,32.5 C9.1,32.1 9.5,31.6 9.9,31.1 C11.9,35 15.8,37.7 20.3,37.7 C26.8,37.7 32.1,32.1 32.1,25.3 C32.1,18.4 26.8,12.9 20.3,12.9 C16.1,12.9 12.5,15.2 10.4,18.6 C9.1,15.9 6.6,16.1 5.8,15.6 C-1.4,21.7 -3.4,34.5 6,41.9 L6,41.9 Z M25.2,16.3 C28.1,18.1 30,21.4 30,25.2 C30,30.9 25.6,35.6 20.3,35.6 C16.4,35.6 13,33.1 11.5,29.6 C19,28.9 25.2,23.7 25.2,16.3 L25.2,16.3 Z" id="Shape" sketch:type="MSShapeGroup"></path>
            <path d="M59,38.7 C59.8,38.2 59.6,37.1 58.2,37.2 C54.8,37.6 51.4,37.3 48.8,37.4 C48,37.4 47.4,38 47.2,38.7 L47.2,38.6 C43.2,42.8 37.6,47.5 37.6,47.5 C37.6,47.5 28.7,41 27.5,40.6 C19.5,38.3 10.7,42 6,48.5 C1.2,55.2 0.2,62.4 0.4,70.4 C0.5,73.4 5.1,73.4 5,70.4 C4.8,63.6 5.3,57.7 10.1,52.6 C11.1,51.5 12,50.7 12.9,50 C15.2,54.9 13.2,61.2 12.1,64.3 C11.5,66 12.2,66.7 13.7,67.6 C15.1,68.4 16.8,68.8 18.4,69.1 C20.7,69.6 25.9,70.8 26.9,67.9 C28.9,62 29.2,55.4 29,49 C30.6,49.9 34.2,52.1 36.2,52.9 C38.1,53.7 38.4,53.5 41.4,50.5 C44.4,47.6 48,42.6 49.2,41.3 C53.2,42 56.2,40.5 59,38.7 L59,38.7 Z" id="Shape" sketch:type="MSShapeGroup"></path>
        </g>
    </g>
</svg>