<svg width="150px" height="150px" viewBox="0 0 90 92" version="1.1" xmlns="http://www.w3.org/2000/svg" xmlns:xlink="http://www.w3.org/1999/xlink" xmlns:sketch="http://www.bohemiancoding.com/sketch/ns">
    <defs></defs>
    <g id="Page-1" stroke="none" stroke-width="1" fill="none" fill-rule="evenodd" sketch:type="MSPage">
        <g id="Group" sketch:type="MSLayerGroup" fill="#555555">
            <path d="M84.716,0.225 L33.97,0.225 C31.056,0.225 28.686,2.596 28.686,5.509 L28.686,33.822 L22.812,40.221 L22.812,40.22 C22.812,39.403 22.738,38.935 22.573,38.694 C22.119,38.027 20.971,39.069 18.763,39.247 C18.562,39.264 18.353,39.272 18.134,39.272 L17.817,39.272 C16.663,39.272 15.766,39.021 15.075,38.799 C14.142,38.5 13.595,38.268 13.332,38.786 C13.201,39.046 13.137,39.487 13.137,40.22 L11.245,41.754 L0.733,54.229 C-0.364,55.51 -0.212,57.437 1.069,58.535 C1.646,59.024 2.35,59.264 3.052,59.264 C3.913,59.264 4.768,58.903 5.374,58.195 L10.436,52.1 L9.579,64.351 L11.764,64.351 L11.764,64.568 L9.535,88.438 L9.535,88.439 C9.379,90.118 10.613,91.606 12.292,91.762 C12.388,91.772 12.484,91.776 12.578,91.776 C14.137,91.776 15.466,90.589 15.614,89.007 L17.773,65.899 L18.177,65.899 L20.334,89.007 C20.483,90.589 21.814,91.776 23.37,91.776 C23.466,91.776 23.562,91.772 23.659,91.762 C25.337,91.606 26.57,90.117 26.414,88.439 L26.414,88.438 L24.184,64.568 L24.184,64.351 L26.369,64.351 L25.462,52.025 L25.117,47.337 L25.202,47.389 L30.422,41.346 C31.361,42.2 32.604,42.726 33.971,42.726 L84.717,42.726 C87.63,42.726 90.001,40.356 90.001,37.442 L90.001,5.509 C90,2.596 87.629,0.225 84.716,0.225 L84.716,0.225 Z M86.98,37.44 C86.98,38.689 85.964,39.705 84.715,39.705 L33.97,39.705 C33.357,39.705 32.802,39.458 32.394,39.061 L36.125,34.741 C36.926,33.805 37.054,32.528 36.569,31.479 L49.485,16.912 C49.9,16.445 49.857,15.728 49.389,15.313 C48.92,14.898 48.206,14.942 47.79,15.409 L34.923,29.922 C34.563,29.781 34.186,29.704 33.806,29.704 C33.041,29.704 32.29,30.007 31.705,30.566 L31.705,5.509 C31.705,4.26 32.721,3.244 33.97,3.244 L84.716,3.244 C85.965,3.244 86.981,4.26 86.981,5.509 L86.981,37.44 L86.98,37.44 Z" id="Shape" sketch:type="MSShapeGroup"></path>
            <path d="M17.975,37.232 C17.99,37.232 18.001,37.23 18.016,37.23 C18.029,37.23 18.042,37.232 18.056,37.232 C21.755,37.232 24.755,34.233 24.755,30.534 C24.755,26.833 21.755,23.835 18.056,23.835 C18.042,23.835 18.029,23.837 18.016,23.837 C18.001,23.837 17.99,23.835 17.975,23.835 C14.276,23.835 11.275,26.834 11.275,30.533 C11.275,34.234 14.275,37.232 17.975,37.232 L17.975,37.232 Z" id="Shape" sketch:type="MSShapeGroup"></path>
        </g>
    </g>
</svg>